<?xml version="1.0" encoding="utf-8"?>
<!-- Generator: Adobe Illustrator 12.0.1, SVG Export Plug-In . SVG Version: 6.00 Build 51448)  -->
<!DOCTYPE svg PUBLIC "-//W3C//DTD SVG 1.1//EN" "http://www.w3.org/Graphics/SVG/1.1/DTD/svg11.dtd" [
	<!ENTITY ns_svg "http://www.w3.org/2000/svg">
	<!ENTITY ns_xlink "http://www.w3.org/1999/xlink">
]>
<svg  version="1.1" id="Elements" xmlns="&ns_svg;" xmlns:xlink="&ns_xlink;" width="648" height="288" viewBox="0 0 648 288"
	 overflow="visible" enable-background="new 0 0 648 288" xml:space="preserve">
<path fill="#B3B587" d="M108.785,255.864c0.706,7.581,1.352,19.071-0.97,25.426c-3.683,10.019-48.853,8.03-54.015-0.761
	c-3.3-5.594-2.458-17.658-1.361-25.884c-80.61-34.005-45.833-182.6-39.948-198.583c6.388-17.336,17.81-38.465,27.948-15.924
	c7.867-20.29,22.589-28.514,33.493-14.063c8.836-8.799,20.982-6.811,23.754,6.033c5.672-17.269,33.101,6.422,30.72,26.069
	c8.003-20.865,15.488-10.204,21.747-3.985c4.84,4.823,13.813,37.949,18.388,52.527C172.173,118.294,185.44,211.798,108.785,255.864z
	 M383.903,78.272c-0.892,0.299-1.84,1.653-2.3,2.402c-0.912,1.487-1.416,3.214-1.854,4.886c-1.316,5.028-2.08,10.243-2.652,15.401
	c-0.708,6.386-0.81,12.712-1.036,19.121c-0.208,5.891-0.532,11.84-1.572,17.651c-0.248,1.382-0.536,2.761-0.917,4.113
	c-0.166,0.587-0.352,1.169-0.57,1.739c-0.146,0.384-0.623,1.057-0.623,1.455c0,0,0-7.844-2.74-17.456
	c-17.368-38.651-48.921-55.988-52.28-46.934c-13.752-7.192-18.592,28.505-22.58,39.742c-8.59-17.845-33.697-53.542-40.339-46.934
	c-6.268-6.228-22.589,7.192-26.272,26.898c0,0,0-34.149-4.389-44.167c-1.165-0.389-2.321-0.389-3.359-0.127
	c-7.289,1.794-11.932,17.337-15.998,35.055c-7.297-7.259-2.458-27.287-7.688-27.287c-12.264,0-20.131,54.896-12.323,78.909
	c4.125,14.977,18.975,98.979,75.967,111.907c-1.098,8.226-1.94,20.29,1.352,25.884c5.163,8.791,50.341,10.779,54.024,0.761
	c2.313-6.354,1.675-17.845,0.961-25.426c50.282-18.826,72.616-93.707,76.613-104.91v-0.059
	C410.098,109.604,390.418,76.089,383.903,78.272z M644.212,150.954v-0.059c-0.586-19.139-5.75-33.777-11.039-34.099
	c-2.067-0.126-4.457,1.413-7.23,4.239c-1.674,1.735-3.487,3.985-5.417,6.549c-9.364,12.844-20.786,34.742-31.239,52.519
	c-1.812-0.896-3.486-1.727-5.035-2.378c-11.49-31.78-49.626-57.782-56.796-47.315c-10.452-10.399-23.364,15.662-31.426,28.505
	c0,0-21.365-30.494-27.82-42.949c-6.447-12.396-10.521-13.809-13.752-6.812c0,0-3.029-6.997-6.838-3.207
	c-2.969,2.953-11.746,15.729-12.324,36.789c-0.255,6.16,0.255,13.099,1.812,20.611c-4.78,0-19.757-23.311-24.597-39.361
	c-9.033,8.985,0.196,37.626,23.942,74.796c10.571,15.967,51.727,55.86,74.81,55.86c-1.097,8.226-1.939,20.29,1.352,25.884
	c5.163,8.791,50.341,10.779,54.024,0.761c2.314-6.354,1.676-17.845,0.961-25.426c32.124-12.472,70.507-61.42,74.93-80.635
	C644.017,166.878,644.468,158.535,644.212,150.954z M618.805,62.171c-0.043-0.192-0.086-0.393-0.199-0.599
	c-3.382-9.563-23.005-35.592-54.773-24.82c1.916-8.071,3.966-19.997,1.247-25.882c-4.255-9.26-49.006-15.726-53.674-6.122
	c-2.945,6.09-3.458,17.589-3.508,25.204c-12.139-1.86-30.479,2.505-41.667,15.719c-51.231,14.635-56.633,71.529-52.143,71.976
	c1.8,0.18,5.838-6.387,11.167-14.893c0.006-0.062,0.006-0.062,0.012-0.124c8.661-13.851,20.622-32.792,31.708-35.946
	c-4.836,14.553,1.957,24.331,16.129,33.034c2.017,1.235,3.846,2.382,5.618,3.466c1.71,1.071,3.295,2.067,4.773,2.864
	c7.735,4.318,12.477,4.917,14.676-4.026c10.631,12.933,19.43-15.808,32.215-26.21c10.787,3.654,45.538,55.326,54.583,47.966
	c1.724,15.075,20.036,1.998,24.296-8.095c4.253-10.03,7.399-20.624-15.713-48.74c10.592,1.056,26.95,20.887,39.114,32.812
	c5.788,5.612,10.646,9.512,13.451,8.765C653.387,106.53,638.607,77.443,618.805,62.171z M391.348,62.327
	c-0.041-0.193-0.082-0.395-0.192-0.602c-3.263-9.603-22.562-35.873-54.461-25.491c-0.466,0.144-0.946,0.348-1.419,0.491
	c-6.435-5.121-13.971-7.965-24.364-6.808c-16.849,1.991-19.469,3.894-19.469,3.894c-2.05-2.558-5.814-4.268-10.595-5.063
	c-12.115-2.009-30.508,2.132-41.858,15.208c-3.426,3.812-6.148,8.352-7.929,13.775c-0.68,6,7.676,7.322,14.025-5.728
	c3.675,10.559,8.474,6.055,15.825,0.222c7.36-5.896,20.938-9.414,20.938-9.414c10.277,6.194,30.191,23.615,33.849,24.025
	c3.588,0.402,7.995-6.411,7.995-6.411c6.098,7.537,0.589,12.604,10.845,8.069c10.249-4.473,21.46-8.257,12.013-20.043
	c-1.368-1.699-2.742-3.343-4.117-4.917c15.863,2.682,34.019,14.409,37.484,18.805C383.901,67.31,394.235,71.825,391.348,62.327z"/>
</svg>
